<svg width="34" height="18" viewBox="0 0 34 18" fill="none" xmlns="http://www.w3.org/2000/svg">
<path d="M16.634 16.6593C16.4405 16.8563 16.4433 17.1729 16.6403 17.3664C16.8373 17.5599 17.1539 17.5571 17.3474 17.3601L16.9907 17.0097L16.634 16.6593ZM16.9907 17.0097L17.3474 17.3601L33.7134 0.700802L33.3567 0.350403L33 3.4794e-06L16.634 16.6593L16.9907 17.0097Z" fill="black"/>
<path d="M16.366 17.3601C16.5595 17.5571 16.8761 17.5599 17.0731 17.3664C17.27 17.1729 17.2729 16.8563 17.0793 16.6593L16.7227 17.0097L16.366 17.3601ZM16.7227 17.0097L17.0793 16.6593L0.713369 3.4794e-06L0.356689 0.350403L9.32994e-06 0.700802L16.366 17.3601L16.7227 17.0097Z" fill="black"/>
</svg>
