<svg width="39" height="41" viewBox="0 0 39 41" fill="none" xmlns="http://www.w3.org/2000/svg">
<path d="M14.625 32.4583C6.5 35.0208 6.5 28.1875 3.25 27.3333M26 37.5833V30.9721C26.061 30.1575 25.9563 29.3386 25.6929 28.5698C25.4295 27.801 25.0135 27.1 24.4725 26.5133C29.575 25.9154 34.9375 23.8825 34.9375 14.555C34.9371 12.1698 34.0644 9.87619 32.5 8.14872C33.2408 6.06201 33.1884 3.75549 32.3537 1.70831C32.3537 1.70831 30.4363 1.11039 26 4.23664C22.2755 3.17546 18.3495 3.17546 14.625 4.23664C10.1887 1.11039 8.27125 1.70831 8.27125 1.70831C7.43661 3.75549 7.38423 6.06201 8.125 8.14872C6.54896 9.889 5.67535 12.2034 5.6875 14.6062C5.6875 23.8654 11.05 25.8983 16.1525 26.5646C15.6179 27.1453 15.2056 27.838 14.9424 28.5973C14.6792 29.3567 14.5711 30.1658 14.625 30.9721V37.5833" stroke="#1E1E1E" stroke-width="2.5" stroke-linecap="round" stroke-linejoin="round"/>
</svg>
